<svg aria-hidden="true" style="position: absolute; width: 0; height: 0; overflow: hidden;" version="1.1" xmlns="http://www.w3.org/2000/svg" xmlns:xlink="http://www.w3.org/1999/xlink">
<defs>
<symbol id="icon-add_circle_outline" viewBox="0 0 24 24">
<path d="M12 20.016q3.281 0 5.648-2.367t2.367-5.648-2.367-5.648-5.648-2.367-5.648 2.367-2.367 5.648 2.367 5.648 5.648 2.367zM12 2.016q4.125 0 7.055 2.93t2.93 7.055-2.93 7.055-7.055 2.93-7.055-2.93-2.93-7.055 2.93-7.055 7.055-2.93zM12.984 6.984v4.031h4.031v1.969h-4.031v4.031h-1.969v-4.031h-4.031v-1.969h4.031v-4.031h1.969z"></path>
</symbol>
<symbol id="icon-insert_invitation" viewBox="0 0 24 24">
<path d="M18.984 18.984v-10.969h-13.969v10.969h13.969zM15.984 0.984h2.016v2.016h0.984q0.797 0 1.406 0.609t0.609 1.406v13.969q0 0.797-0.609 1.406t-1.406 0.609h-13.969q-0.844 0-1.43-0.586t-0.586-1.43v-13.969q0-0.797 0.586-1.406t1.43-0.609h0.984v-2.016h2.016v2.016h7.969v-2.016zM17.016 12v5.016h-5.016v-5.016h5.016z"></path>
</symbol>
<symbol id="icon-wb_incandescent" viewBox="0 0 24 24">
<path d="M17.25 18.141l1.406-1.359 1.781 1.781-1.406 1.406zM20.016 10.5h3v2.016h-3v-2.016zM15 6.328q1.359 0.797 2.18 2.156t0.82 3q0 2.484-1.758 4.242t-4.242 1.758-4.242-1.758-1.758-4.242q0-1.641 0.82-3t2.18-2.156v-4.828h6v4.828zM3.984 10.5v2.016h-3v-2.016h3zM11.016 22.453v-2.953h1.969v2.953h-1.969zM3.563 18.563l1.781-1.828 1.406 1.406-1.781 1.828z"></path>
</symbol>
<symbol id="icon-wb_sunny" viewBox="0 0 24 24">
<path d="M3.563 18.563l1.781-1.828 1.406 1.406-1.781 1.828zM11.016 22.453v-2.953h1.969v2.953h-1.969zM12 5.484q2.484 0 4.242 1.758t1.758 4.242-1.758 4.242-4.242 1.758-4.242-1.758-1.758-4.242 1.758-4.242 4.242-1.758zM20.016 10.5h3v2.016h-3v-2.016zM17.25 18.141l1.406-1.359 1.781 1.781-1.406 1.406zM20.438 4.453l-1.781 1.781-1.406-1.406 1.781-1.781zM12.984 0.563v2.953h-1.969v-2.953h1.969zM3.984 10.5v2.016h-3v-2.016h3zM6.75 4.828l-1.406 1.406-1.781-1.781 1.406-1.406z"></path>
</symbol>
<symbol id="icon-photo_size_select_actual" viewBox="0 0 24 24">
<path d="M5.016 17.016h13.969l-4.5-6-3.469 4.5-2.531-3zM21 3q0.75 0 1.383 0.633t0.633 1.383v13.969q0 0.75-0.633 1.383t-1.383 0.633h-18q-0.797 0-1.406-0.609t-0.609-1.406v-13.969q0-0.75 0.633-1.383t1.383-0.633h18z"></path>
</symbol>
<symbol id="icon-local_library" viewBox="0 0 24 24">
<path d="M12 8.016q-1.219 0-2.109-0.891t-0.891-2.109 0.891-2.109 2.109-0.891 2.109 0.891 0.891 2.109-0.891 2.109-2.109 0.891zM12 11.531q3.75-3.516 9-3.516v10.969q-5.203 0-9 3.563-3.797-3.563-9-3.563v-10.969q5.25 0 9 3.516z"></path>
</symbol>
<symbol id="icon-keyboard_control" viewBox="0 0 24 24">
<path d="M12 9.984q0.797 0 1.406 0.609t0.609 1.406-0.609 1.406-1.406 0.609-1.406-0.609-0.609-1.406 0.609-1.406 1.406-0.609zM18 9.984q0.797 0 1.406 0.609t0.609 1.406-0.609 1.406-1.406 0.609-1.406-0.609-0.609-1.406 0.609-1.406 1.406-0.609zM6 9.984q0.797 0 1.406 0.609t0.609 1.406-0.609 1.406-1.406 0.609-1.406-0.609-0.609-1.406 0.609-1.406 1.406-0.609z"></path>
</symbol>
<symbol id="icon-more_vert" viewBox="0 0 24 24">
<path d="M12 15.984q0.797 0 1.406 0.609t0.609 1.406-0.609 1.406-1.406 0.609-1.406-0.609-0.609-1.406 0.609-1.406 1.406-0.609zM12 9.984q0.797 0 1.406 0.609t0.609 1.406-0.609 1.406-1.406 0.609-1.406-0.609-0.609-1.406 0.609-1.406 1.406-0.609zM12 8.016q-0.797 0-1.406-0.609t-0.609-1.406 0.609-1.406 1.406-0.609 1.406 0.609 0.609 1.406-0.609 1.406-1.406 0.609z"></path>
</symbol>
<symbol id="icon-event_available" viewBox="0 0 24 24">
<path d="M18.984 18.984v-10.969h-13.969v10.969h13.969zM18.984 3q0.797 0 1.406 0.609t0.609 1.406v13.969q0 0.797-0.609 1.406t-1.406 0.609h-13.969q-0.844 0-1.43-0.586t-0.586-1.43v-13.969q0-0.797 0.586-1.406t1.43-0.609h0.984v-2.016h2.016v2.016h7.969v-2.016h2.016v2.016h0.984zM16.547 11.063l-5.953 5.953-3.188-3.188 1.078-1.078 2.109 2.109 4.875-4.875z"></path>
</symbol>
<symbol id="icon-event_note" viewBox="0 0 24 24">
<path d="M14.016 14.016v1.969h-7.031v-1.969h7.031zM18.984 18.984v-10.969h-13.969v10.969h13.969zM18.984 3q0.797 0 1.406 0.609t0.609 1.406v13.969q0 0.797-0.609 1.406t-1.406 0.609h-13.969q-0.844 0-1.43-0.586t-0.586-1.43v-13.969q0-0.797 0.586-1.406t1.43-0.609h0.984v-2.016h2.016v2.016h7.969v-2.016h2.016v2.016h0.984zM17.016 9.984v2.016h-10.031v-2.016h10.031z"></path>
</symbol>
<symbol id="icon-home" viewBox="0 0 24 24">
<path d="M9.984 20.016h-4.969v-8.016h-3l9.984-9 9.984 9h-3v8.016h-4.969v-6h-4.031v6z"></path>
</symbol>
<symbol id="icon-emoji_objects" viewBox="0 0 24 24">
<path d="M12.516 11.391l1.828-1.781-0.703-0.75-1.641 1.641-1.641-1.641-0.703 0.75 1.828 1.781v2.625h1.031v-2.625zM14.016 17.016v-1.031h-4.031v1.031h4.031zM14.016 18.984v-0.984h-4.031v0.984h4.031zM12 3q2.906 0 4.945 2.039t2.039 4.945v0.047q0 1.313-0.68 2.836t-1.664 2.367q-0.656 0.563-0.656 1.453v2.297q0 0.797-0.586 1.406t-1.383 0.609h-0.281q-0.563 0.984-1.734 0.984t-1.734-0.984h-0.281q-0.797 0-1.383-0.609t-0.586-1.406v-2.297q0-0.891-0.656-1.453-2.953-2.625-2.25-6.563 0.375-2.063 1.898-3.609t3.586-1.922q0.703-0.141 1.406-0.141z"></path>
</symbol>
<symbol id="icon-house" viewBox="0 0 24 24">
<path d="M9.984 9.984h4.031q0-0.797-0.609-1.383t-1.406-0.586-1.406 0.586-0.609 1.383zM18.984 9.281l3 2.719h-3v8.016h-4.969v-6h-4.031v6h-4.969v-8.016h-3l9.984-9 3.984 3.609v-2.625h3v5.297z"></path>
</symbol>
<symbol id="icon-legend_toggle" viewBox="0 0 24 24">
<path d="M20.016 15h-16.031v-2.016h16.031v2.016zM20.016 17.016h-16.031v1.969h16.031v-1.969zM15 11.016l5.016-3.563v-2.438l-5.016 3.516-5.016-3.516-6 3.656v2.344l5.953-3.609z"></path>
</symbol>
<symbol id="icon-psychology" viewBox="0 0 24 24">
<path d="M12.984 8.578q-0.563 0-0.984 0.422t-0.422 0.984q0 0.609 0.422 1.031t0.984 0.422q0.609 0 1.031-0.422t0.422-1.031q0-0.563-0.422-0.984t-1.031-0.422zM12.984 3q-1.406 0-2.625 0.516t-2.18 1.43-1.523 2.109-0.656 2.602l-1.922 2.531q-0.188 0.281-0.047 0.539t0.469 0.258h1.5v3q0 0.844 0.586 1.43t1.43 0.586h0.984v3h6.984v-4.688q1.781-0.844 2.906-2.531t1.125-3.797q0-1.453-0.563-2.719t-1.523-2.227-2.227-1.5-2.719-0.539zM15.984 9.984v0.422l0.844 0.656q0.094 0.094 0.047 0.234l-0.797 1.406q-0.094 0.141-0.281 0.094l-0.984-0.422q-0.281 0.234-0.656 0.375l-0.141 1.078q-0.047 0.188-0.234 0.188h-1.594q-0.141 0-0.188-0.188l-0.141-1.078q-0.375-0.141-0.703-0.375l-0.984 0.422q-0.141 0.047-0.234-0.094l-0.797-1.406q-0.094-0.141 0.047-0.234l0.844-0.656q0-0.094-0.023-0.211t-0.023-0.211 0.023-0.188 0.023-0.188l-0.844-0.656q-0.141-0.094-0.047-0.281l0.797-1.359q0.094-0.141 0.234-0.094l1.031 0.422q0.328-0.281 0.656-0.422l0.141-1.031q0.047-0.188 0.188-0.188h1.594q0.188 0 0.234 0.188l0.141 1.031q0.328 0.141 0.656 0.422l0.984-0.422q0.188-0.047 0.281 0.094l0.797 1.359q0.094 0.188-0.047 0.281l-0.891 0.656q0.047 0.141 0.047 0.375z"></path>
</symbol>
<symbol id="icon-self_improvement" viewBox="0 0 24 24">
<path d="M9.984 6q0-0.844 0.586-1.43t1.43-0.586 1.43 0.586 0.586 1.43-0.586 1.43-1.43 0.586-1.43-0.586-0.586-1.43zM21 15.984v-1.969q-1.688 0-3.094-0.703t-2.484-2.016l-1.359-1.594q-0.609-0.703-1.547-0.703h-1.031q-0.938 0-1.547 0.703l-1.313 1.594q-1.125 1.313-2.531 2.016t-3.094 0.703v1.969q2.063 0 3.844-0.844t3.141-2.391v2.25l-3.844 1.547q-0.516 0.188-0.82 0.656t-0.305 0.984q0 0.75 0.516 1.289t1.266 0.539h2.203v-0.516q0-1.031 0.727-1.758t1.758-0.727h3q0.234 0 0.375 0.141t0.141 0.328q0 0.234-0.141 0.375t-0.375 0.141h-3q-0.609 0-1.055 0.445t-0.445 1.055v0.516h7.219q0.75 0 1.266-0.539t0.516-1.289q0-0.516-0.305-0.984t-0.82-0.656l-3.844-1.547v-2.25q1.359 1.547 3.141 2.391t3.844 0.844z"></path>
</symbol>
<symbol id="icon-help-with-circle" viewBox="0 0 20 20">
<path d="M10 0.4c-5.302 0-9.6 4.298-9.6 9.6s4.298 9.6 9.6 9.6c5.301 0 9.6-4.298 9.6-9.601 0-5.301-4.299-9.599-9.6-9.599zM9.849 15.599h-0.051c-0.782-0.023-1.334-0.6-1.311-1.371 0.022-0.758 0.587-1.309 1.343-1.309l0.046 0.002c0.804 0.023 1.35 0.594 1.327 1.387-0.023 0.76-0.578 1.291-1.354 1.291zM13.14 9.068c-0.184 0.26-0.588 0.586-1.098 0.983l-0.562 0.387c-0.308 0.24-0.494 0.467-0.563 0.688-0.056 0.174-0.082 0.221-0.087 0.576v0.090h-2.145l0.006-0.182c0.027-0.744 0.045-1.184 0.354-1.547 0.485-0.568 1.555-1.258 1.6-1.287 0.154-0.115 0.283-0.246 0.379-0.387 0.225-0.311 0.324-0.555 0.324-0.793 0-0.334-0.098-0.643-0.293-0.916-0.188-0.266-0.545-0.398-1.061-0.398-0.512 0-0.863 0.162-1.072 0.496-0.216 0.341-0.325 0.7-0.325 1.067v0.092h-2.211l0.004-0.096c0.057-1.353 0.541-2.328 1.435-2.897 0.563-0.361 1.264-0.544 2.081-0.544 1.068 0 1.972 0.26 2.682 0.772 0.721 0.519 1.086 1.297 1.086 2.311-0.001 0.567-0.18 1.1-0.534 1.585z"></path>
</symbol>
<symbol id="icon-magnifying-glass" viewBox="0 0 20 20">
<path d="M17.545 15.467l-3.779-3.779c0.57-0.935 0.898-2.035 0.898-3.21 0-3.417-2.961-6.377-6.378-6.377s-6.186 2.769-6.186 6.186c0 3.416 2.961 6.377 6.377 6.377 1.137 0 2.2-0.309 3.115-0.844l3.799 3.801c0.372 0.371 0.975 0.371 1.346 0l0.943-0.943c0.371-0.371 0.236-0.84-0.135-1.211zM4.004 8.287c0-2.366 1.917-4.283 4.282-4.283s4.474 2.107 4.474 4.474c0 2.365-1.918 4.283-4.283 4.283s-4.473-2.109-4.473-4.474z"></path>
</symbol>
<symbol id="icon-new-message" viewBox="0 0 20 20">
<path d="M18.174 1.826c-1.102-1.102-2.082-0.777-2.082-0.777l-8.639 8.632-1.453 4.319 4.317-1.454 8.634-8.638c0 0 0.324-0.98-0.777-2.082zM10.605 11.605l-0.471 0.47-1.473 0.5c-0.104-0.24-0.234-0.477-0.498-0.74s-0.5-0.394-0.74-0.498l0.5-1.473 0.471-0.47c0 0 0.776-0.089 1.537 0.673 0.762 0.761 0.674 1.538 0.674 1.538zM16 17h-13v-13h5l2-2h-7c-1.1 0-2 0.9-2 2v13c0 1.1 0.9 2 2 2h13c1.1 0 2-0.9 2-2v-7l-2 2v5z"></path>
</symbol>
</defs>
</svg>
